<?xml version="1.0" standalone="no"?>
<!DOCTYPE svg PUBLIC "-//W3C//DTD SVG 20010904//EN"
 "http://www.w3.org/TR/2001/REC-SVG-20010904/DTD/svg10.dtd">
<svg version="1.0" xmlns="http://www.w3.org/2000/svg"
 width="800.000000pt" height="299.000000pt" viewBox="0 0 800.000000 299.000000"
 preserveAspectRatio="xMidYMid meet">

<g transform="translate(0.000000,299.000000) scale(0.100000,-0.100000)"
fill="#000000" stroke="none">
<path d="M1402 2610 c-44 -27 -72 -76 -72 -128 0 -57 11 -77 76 -138 67 -63
69 -85 14 -149 -53 -61 -55 -102 -6 -151 26 -26 42 -34 71 -34 29 0 45 8 71
34 49 49 47 90 -6 151 -55 64 -53 86 14 149 65 61 76 81 76 138 0 86 -65 148
-155 148 -32 0 -62 -7 -83 -20z"/>
<path d="M962 2390 c-46 -29 -72 -76 -72 -134 0 -195 285 -208 307 -14 7 57
-23 118 -70 147 -45 28 -120 28 -165 1z"/>
<path d="M1840 2388 c-123 -84 -72 -272 77 -285 158 -13 227 204 91 287 -47
28 -125 27 -168 -2z"/>
<path d="M550 2118 c-53 -37 -74 -72 -74 -126 0 -125 113 -194 230 -143 28 13
58 20 71 16 29 -7 63 -44 63 -68 0 -28 30 -74 57 -86 106 -48 201 75 124 161
-30 34 -65 40 -143 23 -52 -11 -82 21 -91 95 -7 61 -27 94 -77 128 -45 30
-115 30 -160 0z"/>
<path d="M2260 2118 c-49 -34 -70 -67 -77 -126 -8 -74 -29 -97 -84 -94 -119 8
-120 8 -150 -26 -64 -71 -15 -172 82 -172 37 0 99 56 99 90 0 33 16 56 50 70
26 11 37 10 82 -10 121 -52 233 17 231 143 -1 83 -68 147 -153 147 -32 0 -57
-7 -80 -22z"/>
<path d="M1190 2039 c-39 -16 -59 -39 -66 -76 -12 -65 25 -113 97 -127 50 -9
83 -47 82 -94 -2 -56 12 -74 55 -70 30 2 38 8 47 32 9 25 6 31 -20 51 -84 66
-80 55 -59 178 8 47 -14 83 -61 103 -39 16 -41 16 -75 3z"/>
<path d="M1703 2036 c-43 -20 -67 -58 -60 -98 3 -18 8 -52 12 -75 8 -44 5 -49
-70 -108 -26 -20 -29 -26 -20 -51 9 -24 17 -30 47 -32 43 -4 57 14 55 70 -1
48 30 82 89 97 24 6 53 20 64 31 78 78 -15 211 -117 166z"/>
<path d="M3276 1934 c-171 -41 -294 -167 -326 -332 -49 -248 85 -464 325 -527
75 -19 234 -19 308 0 113 29 257 124 257 168 0 9 -14 32 -31 52 -39 44 -72 46
-121 5 -102 -84 -276 -109 -400 -57 -51 21 -118 85 -139 132 -37 81 -64 75
342 75 l361 0 -4 108 c-3 91 -8 116 -32 169 -32 69 -97 138 -166 173 -92 47
-257 62 -374 34z m241 -159 c81 -24 126 -73 147 -157 l6 -28 -270 0 -271 0 7
23 c43 139 213 212 381 162z"/>
<path d="M4493 1931 c-53 -18 -106 -53 -147 -98 l-24 -26 -26 52 -26 51 -54 0
c-91 0 -86 23 -86 -411 0 -243 4 -387 10 -400 9 -16 22 -19 83 -19 44 0 78 5
85 12 9 9 12 81 12 260 0 286 1 291 88 370 52 46 105 68 166 68 56 0 106 -51
113 -115 8 -72 23 -85 98 -85 87 0 100 16 90 107 -8 87 -42 162 -88 197 -73
56 -196 71 -294 37z"/>
<path d="M1444 1885 c-30 -45 13 -99 61 -77 32 15 40 47 21 77 -22 33 -60 33
-82 0z"/>
<path d="M5010 1898 c0 -7 89 -194 197 -415 l198 -402 58 -1 58 0 200 406
c109 223 197 410 193 415 -9 15 -170 11 -183 -5 -15 -18 -240 -472 -255 -515
l-12 -34 -22 59 c-13 32 -73 158 -135 279 l-112 220 -92 3 c-71 2 -93 0 -93
-10z"/>
<path d="M6145 1897 c-3 -6 -4 -192 -3 -412 l3 -400 85 0 85 0 3 399 c1 286
-1 403 -9 412 -15 19 -157 20 -164 1z"/>
<path d="M6611 1897 c-8 -11 -11 -121 -9 -413 l3 -399 88 -3 87 -3 0 109 c0
72 4 113 13 123 6 9 45 44 85 79 l73 64 187 -187 187 -187 113 0 c84 0 112 3
112 13 0 7 -27 39 -61 72 -33 33 -136 139 -229 236 l-169 175 175 152 c96 84
174 159 174 167 0 12 -19 15 -107 15 l-108 0 -220 -193 -220 -194 -5 191 -5
191 -76 3 c-56 2 -79 -1 -88 -11z"/>
<path d="M1137 1712 c-32 -35 -11 -92 33 -92 45 0 66 62 32 93 -24 22 -45 21
-65 -1z"/>
<path d="M1767 1712 c-32 -35 -11 -92 33 -92 47 0 67 67 28 94 -29 21 -41 20
-61 -2z"/>
<path d="M533 1631 c-62 -29 -85 -71 -81 -148 3 -49 9 -68 28 -89 37 -38 73
-54 127 -54 66 0 115 34 138 95 52 136 -80 258 -212 196z"/>
<path d="M2305 1636 c-56 -25 -95 -85 -95 -144 1 -45 35 -107 72 -130 46 -29
121 -29 166 -2 102 63 96 222 -12 271 -48 22 -89 23 -131 5z"/>
<path d="M930 1589 c-39 -16 -59 -39 -66 -76 -13 -69 35 -123 110 -123 27 0
43 8 69 34 50 53 81 61 131 36 53 -25 68 -25 91 0 15 16 17 26 9 48 -11 33
-61 42 -96 18 -36 -26 -74 -20 -115 18 -63 56 -86 64 -133 45z"/>
<path d="M1970 1593 c-8 -3 -34 -23 -57 -44 -47 -43 -83 -50 -121 -23 -35 24
-85 15 -96 -18 -8 -22 -6 -32 9 -48 23 -25 38 -25 91 0 50 25 81 17 131 -36
38 -38 83 -45 132 -19 59 30 65 127 11 166 -28 21 -77 31 -100 22z"/>
<path d="M1132 1348 c-15 -15 -15 -61 0 -76 7 -7 24 -12 38 -12 14 0 31 5 38
12 7 7 12 24 12 38 0 33 -17 50 -50 50 -14 0 -31 -5 -38 -12z"/>
<path d="M1762 1348 c-7 -7 -12 -24 -12 -38 0 -33 17 -50 50 -50 33 0 50 17
50 50 0 14 -5 31 -12 38 -7 7 -24 12 -38 12 -14 0 -31 -5 -38 -12z"/>
<path d="M1315 1300 c-11 -12 -15 -28 -12 -41 3 -12 0 -37 -8 -56 -14 -33 -34
-46 -89 -58 -16 -3 -41 -19 -57 -35 -63 -63 -15 -170 76 -170 65 0 114 58 101
120 -3 16 -9 44 -12 60 -8 37 14 73 56 95 38 19 49 59 25 85 -23 25 -57 25
-80 0z"/>
<path d="M1575 1300 c-24 -26 -13 -66 25 -85 16 -8 37 -27 46 -40 16 -24 15
-38 -2 -107 -22 -91 70 -158 155 -113 82 42 56 171 -38 191 -52 11 -72 25 -86
57 -8 19 -11 44 -8 56 7 27 -22 61 -52 61 -12 0 -30 -9 -40 -20z"/>
<path d="M877 1260 c-15 -12 -29 -36 -33 -56 -10 -54 -39 -84 -82 -84 -20 0
-46 7 -56 15 -28 21 -120 19 -158 -2 -68 -41 -93 -142 -52 -214 21 -37 92 -79
134 -79 40 0 113 42 132 76 10 17 21 53 24 80 4 28 15 59 28 72 19 21 25 23
97 16 74 -6 79 -5 103 19 46 46 46 108 1 153 -32 31 -100 33 -138 4z"/>
<path d="M1949 1251 c-33 -34 -38 -75 -14 -121 23 -44 48 -53 128 -45 63 6 71
4 93 -16 17 -16 24 -33 24 -59 0 -59 38 -122 90 -147 24 -13 56 -23 70 -23 42
0 113 42 134 79 40 70 16 170 -50 212 -38 23 -127 25 -164 4 -36 -20 -84 -19
-104 4 -9 10 -22 35 -27 56 -16 58 -49 85 -104 85 -38 0 -52 -5 -76 -29z"/>
<path d="M1445 1160 c-15 -16 -17 -26 -9 -48 8 -23 15 -27 49 -27 34 0 41 4
49 27 19 54 -50 91 -89 48z"/>
<path d="M1427 959 c-24 -14 -47 -62 -47 -98 0 -20 13 -44 40 -76 57 -66 54
-98 -15 -145 -54 -37 -79 -88 -73 -150 8 -83 70 -140 153 -140 83 0 145 57
153 140 6 62 -19 113 -73 150 -67 46 -72 81 -19 139 20 23 37 54 41 74 6 39
-16 91 -46 107 -25 13 -91 13 -114 -1z"/>
<path d="M962 860 c-108 -66 -94 -231 23 -275 100 -39 200 21 212 127 6 56
-24 120 -70 148 -43 27 -121 26 -165 0z"/>
<path d="M1840 858 c-120 -82 -73 -270 71 -285 58 -6 125 28 151 77 39 74 14
168 -54 210 -47 28 -125 27 -168 -2z"/>
</g>
</svg>
