<svg width="40" height="40" viewBox="0 0 40 40" fill="none" xmlns="http://www.w3.org/2000/svg">
<path fill-rule="evenodd" clip-rule="evenodd" d="M20 40C31.0457 40 40 31.0457 40 20C40 8.95431 31.0457 0 20 0C8.95435 0 0 8.95431 0 20C0 31.0457 8.95435 40 20 40ZM22.6581 8.00663C21.942 8.00764 21.2249 8.00864 20.5052 8.02025L20.506 8.021C20.4872 10.5969 20.4884 13.1734 20.4896 15.7531C20.4902 17.1981 20.4908 18.644 20.488 20.0914C20.485 20.5756 20.4855 21.0592 20.486 21.5425C20.4872 22.8451 20.4884 24.1457 20.4197 25.4504C20.4098 25.8123 20.2356 26.1305 20.0665 26.4394L20.0262 26.5132C19.4679 27.462 18.4413 28.1101 17.3701 28.1221C15.7544 28.2713 14.2407 26.892 14.0127 25.2509C14.011 25.1704 14.0083 25.0894 14.0055 25.008C13.9899 24.5452 13.974 24.0733 14.1429 23.6421C14.3833 22.925 14.843 22.3101 15.4515 21.8922C16.2831 21.29 17.3954 21.2 18.347 21.521C18.347 20.8882 18.3574 20.2557 18.3678 19.6233C18.3817 18.7751 18.3956 17.9271 18.3845 17.0785C16.3011 16.672 14.076 17.359 12.4875 18.8013C11.0862 20.0396 10.1833 21.86 10.0106 23.7628C9.99329 24.2588 9.99719 24.7553 10.0222 25.2509C10.2207 27.591 11.584 29.7714 13.5214 30.9625C14.6904 31.681 16.0608 32.071 17.4327 31.9893C19.6693 31.9503 21.847 30.7 23.1017 28.7821C23.8815 27.6301 24.3239 26.2387 24.3987 24.8406C24.4182 22.9188 24.417 20.9933 24.4158 19.0656C24.4152 18.0743 24.4146 17.0823 24.4167 16.0899C24.9153 16.4297 25.4246 16.762 25.9713 17.02C27.2267 17.641 28.6166 17.941 30 17.9883V13.9613C28.5238 13.7896 27.0066 13.2818 25.934 12.1725C24.8591 11.0902 24.3311 9.53083 24.2556 8C23.7235 8.00512 23.1912 8.00587 22.6581 8.00663Z" fill="#3F6C86"/>
</svg>
