<svg width="40" height="41" viewBox="0 0 40 41" fill="none" xmlns="http://www.w3.org/2000/svg">
<path d="M40 20.0698C39.9919 31.1541 31.0306 40.1063 19.9615 40.0891C8.90161 40.0708 -0.0151659 31.0943 1.93665e-05 19.9919C0.0152046 8.93602 8.96742 -0.00607101 20.0132 3.09264e-06C31.0782 0.00607719 40.0081 8.97449 40 20.0698ZM27.0085 6.55497C25.5143 6.52561 24.0656 6.40008 22.6311 6.49018C20.2258 6.64001 18.4066 7.77485 17.5754 10.1316C17.291 10.9384 17.1897 11.8303 17.13 12.6918C17.0561 13.7518 17.0956 14.8208 17.1229 15.8848C17.134 16.3019 17.0004 16.4244 16.5904 16.4142C15.5285 16.3869 14.4655 16.392 13.4035 16.4142C13.2578 16.4173 12.9915 16.5934 12.9895 16.6937C12.9632 18.1919 12.9713 19.6902 12.9713 21.2675C14.3663 21.2675 15.7127 21.2675 17.129 21.2675C17.129 25.4373 17.129 29.5282 17.129 33.6212C18.8145 33.6212 20.4282 33.6212 22.1118 33.6212C22.1118 29.4989 22.1118 25.409 22.1118 21.2594C23.1191 21.2594 24.0565 21.2614 24.9939 21.2594C26.2381 21.2563 26.2381 21.2553 26.4244 20.0476C26.4294 20.0132 26.4386 19.9787 26.4436 19.9443C26.5924 18.7882 26.7412 17.6321 26.9022 16.3849C25.2824 16.3849 23.7113 16.3849 22.1816 16.3849C22.1816 15.0283 22.127 13.7548 22.2009 12.4894C22.2495 11.6592 22.789 11.147 23.6192 11.0508C24.429 10.9567 25.2511 10.9739 26.068 10.9486C26.3738 10.9395 26.6805 10.9465 27.0085 10.9465C27.0085 9.47459 27.0085 8.08463 27.0085 6.55497Z" fill="#3F6C86"/>
</svg>
